<svg width="512" height="512" viewBox="0 0 512 512" xmlns="http://www.w3.org/2000/svg">
  <defs>
    <linearGradient id="grad1" x1="0%" y1="0%" x2="100%" y2="100%">
      <stop offset="0%" style="stop-color:#3b82f6;stop-opacity:1" />
      <stop offset="100%" style="stop-color:#1d4ed8;stop-opacity:1" />
    </linearGradient>
  </defs>
  
  <!-- Fondo -->
  <rect width="512" height="512" rx="80" fill="url(#grad1)"/>
  
  <!-- Tarjeta principal -->
  <rect x="64" y="128" width="384" height="240" rx="20" fill="white" fill-opacity="0.95"/>
  
  <!-- Texto L -->
  <text x="256" y="280" font-family="Arial, sans-serif" font-size="120" font-weight="bold" text-anchor="middle" fill="#1d4ed8">L</text>
  
  <!-- Estrella de lealtad -->
  <polygon points="256,80 266,110 296,110 272,130 282,160 256,140 230,160 240,130 216,110 246,110" fill="#fbbf24"/>
  
  <!-- Puntos decorativos -->
  <circle cx="128" cy="180" r="8" fill="#3b82f6" fill-opacity="0.6"/>
  <circle cx="384" cy="180" r="8" fill="#3b82f6" fill-opacity="0.6"/>
  <circle cx="128" cy="320" r="8" fill="#3b82f6" fill-opacity="0.6"/>
  <circle cx="384" cy="320" r="8" fill="#3b82f6" fill-opacity="0.6"/>
  
  <!-- Líneas de tarjeta -->
  <rect x="88" y="200" width="336" height="4" rx="2" fill="#e5e7eb"/>
  <rect x="88" y="220" width="200" height="4" rx="2" fill="#e5e7eb"/>
  <rect x="88" y="300" width="280" height="4" rx="2" fill="#e5e7eb"/>
  <rect x="88" y="320" width="150" height="4" rx="2" fill="#e5e7eb"/>
  
  <!-- Texto inferior -->
  <text x="256" y="420" font-family="Arial, sans-serif" font-size="32" font-weight="normal" text-anchor="middle" fill="white">LEALTA 2.0</text>
  <text x="256" y="450" font-family="Arial, sans-serif" font-size="16" font-weight="normal" text-anchor="middle" fill="white" fill-opacity="0.8">Sistema de Lealtad</text>
</svg>